<svg id="visual" viewBox="0 0 412 787" width="412" height="787" xmlns="http://www.w3.org/2000/svg" xmlns:xlink="http://www.w3.org/1999/xlink" version="1.1"><path d="M0 322L13.7 332.5C27.3 343 54.7 364 82.2 362.3C109.7 360.7 137.3 336.3 164.8 330.8C192.3 325.3 219.7 338.7 247.2 346.2C274.7 353.7 302.3 355.3 329.8 354.7C357.3 354 384.7 351 398.3 349.5L412 348L412 788L398.3 788C384.7 788 357.3 788 329.8 788C302.3 788 274.7 788 247.2 788C219.7 788 192.3 788 164.8 788C137.3 788 109.7 788 82.2 788C54.7 788 27.3 788 13.7 788L0 788Z" fill="#e6f4f1"></path><path d="M0 482L13.7 482.5C27.3 483 54.7 484 82.2 484C109.7 484 137.3 483 164.8 474.7C192.3 466.3 219.7 450.7 247.2 441.2C274.7 431.7 302.3 428.3 329.8 426.3C357.3 424.3 384.7 423.7 398.3 423.3L412 423L412 788L398.3 788C384.7 788 357.3 788 329.8 788C302.3 788 274.7 788 247.2 788C219.7 788 192.3 788 164.8 788C137.3 788 109.7 788 82.2 788C54.7 788 27.3 788 13.7 788L0 788Z" fill="#c2e2df"></path><path d="M0 560L13.7 568C27.3 576 54.7 592 82.2 598.3C109.7 604.7 137.3 601.3 164.8 593.2C192.3 585 219.7 572 247.2 564.5C274.7 557 302.3 555 329.8 563C357.3 571 384.7 589 398.3 598L412 607L412 788L398.3 788C384.7 788 357.3 788 329.8 788C302.3 788 274.7 788 247.2 788C219.7 788 192.3 788 164.8 788C137.3 788 109.7 788 82.2 788C54.7 788 27.3 788 13.7 788L0 788Z" fill="#9ed0d0"></path><path d="M0 635L13.7 638.2C27.3 641.3 54.7 647.7 82.2 652.2C109.7 656.7 137.3 659.3 164.8 661.3C192.3 663.3 219.7 664.7 247.2 665C274.7 665.3 302.3 664.7 329.8 665.3C357.3 666 384.7 668 398.3 669L412 670L412 788L398.3 788C384.7 788 357.3 788 329.8 788C302.3 788 274.7 788 247.2 788C219.7 788 192.3 788 164.8 788C137.3 788 109.7 788 82.2 788C54.7 788 27.3 788 13.7 788L0 788Z" fill="#77bdc3"></path></svg>